<svg xmlns="http://www.w3.org/2000/svg" xmlns:xlink="http://www.w3.org/1999/xlink" width="1920" zoomAndPan="magnify" viewBox="0 0 1440 809.999993" height="1080" preserveAspectRatio="xMidYMid meet" version="1.0"><path fill="#183668" d="M 700.230469 343.617188 C 699.902344 343.40625 699.835938 343.183594 699.703125 342.839844 C 694.027344 328.1875 688.359375 313.53125 682.6875 298.875 C 682.347656 297.992188 682.457031 297.453125 683.371094 297.144531 C 693.496094 293.695312 703.90625 291.71875 714.605469 291.207031 C 715.640625 291.15625 716.703125 290.992188 716.703125 292.289062 C 716.707031 308.15625 716.707031 324.023438 716.707031 339.886719 C 716.707031 340.59375 716.320312 340.964844 715.652344 341.011719 C 710.648438 341.363281 705.789062 342.273438 701.074219 343.734375 C 700.773438 343.828125 700.492188 343.789062 700.230469 343.617188 Z M 700.230469 343.617188 " fill-opacity="1" fill-rule="nonzero"/><path fill="#eb1c2d" d="M 723.757812 340.847656 C 723.359375 340.5625 723.253906 340.304688 723.253906 339.792969 C 723.253906 323.914062 723.253906 308.035156 723.253906 292.160156 C 723.253906 291.136719 724.292969 291.164062 725.019531 291.199219 C 735.816406 291.679688 746.324219 293.652344 756.542969 297.121094 C 757.4375 297.425781 757.671875 297.894531 757.335938 298.769531 C 751.648438 313.460938 745.964844 328.152344 740.277344 342.839844 C 739.953125 343.6875 739.550781 343.933594 738.683594 343.667969 C 733.914062 342.214844 729.085938 341.328125 724.195312 341.003906 C 724.035156 340.996094 723.886719 340.941406 723.757812 340.847656 Z M 723.757812 340.847656 " fill-opacity="1" fill-rule="nonzero"/><path fill="#02558b" d="M 679.285156 354.710938 C 679.210938 354.667969 679.144531 354.617188 679.089844 354.554688 C 668.378906 342.796875 657.679688 331.050781 646.996094 319.316406 C 646.363281 318.621094 646.636719 318.078125 647.285156 317.53125 C 655.699219 310.480469 664.941406 304.765625 675.003906 300.386719 C 675.710938 300.078125 676.246094 300.355469 676.507812 301.027344 C 682.21875 315.773438 687.921875 330.515625 693.625 345.261719 C 693.890625 345.945312 693.792969 346.5 693.117188 346.820312 C 688.648438 348.933594 684.480469 351.53125 680.609375 354.613281 C 680.203125 354.941406 679.757812 354.972656 679.285156 354.710938 Z M 679.285156 354.710938 " fill-opacity="1" fill-rule="nonzero"/><path fill="#d3a029" d="M 746.625 346.671875 C 746.078125 346.386719 746.167969 345.742188 746.371094 345.214844 C 752.058594 330.515625 757.746094 315.816406 763.4375 301.117188 C 763.742188 300.332031 764.242188 300.0625 765.019531 300.402344 C 774.902344 304.710938 783.992188 310.304688 792.285156 317.191406 C 793.171875 317.929688 793.820312 318.398438 792.871094 319.441406 C 782.507812 330.820312 772.148438 342.203125 761.789062 353.585938 C 761.222656 354.207031 760.433594 355.410156 759.445312 354.625 C 756.515625 352.308594 753.40625 350.269531 750.109375 348.507812 C 748.953125 347.886719 747.789062 347.273438 746.625 346.671875 Z M 746.625 346.671875 " fill-opacity="1" fill-rule="nonzero"/><path fill="#5dbb46" d="M 640.625 323.582031 C 641.648438 322.582031 642.964844 324.601562 643.558594 325.253906 C 653.789062 336.488281 664.023438 347.722656 674.253906 358.957031 C 674.792969 359.550781 674.46875 360.105469 673.980469 360.625 C 670.789062 364.003906 667.851562 367.90625 665.167969 372.324219 C 664.746094 373.027344 664.074219 372.796875 663.429688 372.476562 C 649.433594 365.503906 635.441406 358.527344 621.453125 351.550781 C 620.585938 351.121094 620.269531 350.671875 620.773438 349.757812 C 626.167969 340.003906 632.789062 331.277344 640.625 323.582031 Z M 640.625 323.582031 " fill-opacity="1" fill-rule="nonzero"/><path fill="#279b48" d="M 801.160156 325.421875 C 808.269531 332.71875 814.28125 340.828125 819.199219 349.757812 C 819.582031 350.453125 819.542969 351.046875 818.808594 351.414062 C 804.671875 358.457031 790.539062 365.503906 776.40625 372.550781 C 775.699219 372.902344 775.152344 372.902344 774.734375 372.195312 C 772.300781 368.097656 769.296875 364.144531 765.722656 360.332031 C 765.242188 359.816406 765.488281 359.222656 765.929688 358.738281 C 776.519531 347.105469 787.113281 335.472656 797.707031 323.84375 C 798.132812 323.378906 798.664062 323.070312 799.214844 323.460938 C 799.8125 323.878906 800.636719 324.886719 801.160156 325.421875 Z M 801.160156 325.421875 " fill-opacity="1" fill-rule="nonzero"/><path fill="#007dbc" d="M 656.058594 395.101562 C 640.359375 393.699219 624.667969 392.203125 608.976562 390.734375 C 607.976562 390.640625 607.617188 390.292969 607.753906 389.289062 C 609.21875 378.398438 612.195312 367.945312 616.691406 357.933594 C 616.976562 357.292969 617.496094 356.890625 618.171875 357.226562 C 632.351562 364.296875 646.53125 371.363281 660.710938 378.433594 C 661.363281 378.757812 661.664062 379.226562 661.371094 379.929688 C 659.488281 384.484375 658.136719 389.199219 657.324219 394.066406 C 657.199219 394.824219 656.8125 395.167969 656.058594 395.101562 Z M 656.058594 395.101562 " fill-opacity="1" fill-rule="nonzero"/><path fill="#c31f33" d="M 783.183594 394.980469 C 782.9375 394.8125 782.746094 394.589844 782.691406 394.273438 C 781.886719 389.363281 780.539062 384.613281 778.644531 380.015625 C 778.40625 379.4375 778.46875 378.832031 779.042969 378.542969 C 793.285156 371.445312 807.527344 364.347656 821.769531 357.25 C 822.523438 356.871094 823 357.292969 823.316406 357.992188 C 827.804688 368 830.777344 378.449219 832.230469 389.335938 C 832.351562 390.230469 831.996094 390.644531 831.109375 390.726562 C 815.296875 392.195312 799.507812 393.660156 783.742188 395.121094 C 783.539062 395.140625 783.355469 395.09375 783.183594 394.980469 Z M 783.183594 394.980469 " fill-opacity="1" fill-rule="nonzero"/><path fill="#48773e" d="M 655.027344 401.582031 C 655.941406 401.667969 656.519531 401.792969 656.496094 402.84375 C 656.390625 407.71875 656.832031 412.613281 657.828125 417.523438 C 657.96875 418.210938 657.703125 418.652344 657.035156 418.839844 C 641.894531 423.160156 626.753906 427.476562 611.613281 431.789062 C 610.203125 432.1875 610.023438 431.640625 609.746094 430.445312 C 607.304688 419.964844 606.355469 409.347656 606.898438 398.589844 C 606.933594 397.835938 607.175781 397.144531 608.035156 397.222656 C 623.699219 398.679688 639.363281 400.132812 655.027344 401.582031 Z M 655.027344 401.582031 " fill-opacity="1" fill-rule="nonzero"/><path fill="#ef402b" d="M 782.652344 418.730469 C 782.105469 418.390625 782.054688 417.996094 782.183594 417.363281 C 783.144531 412.667969 783.574219 407.921875 783.476562 403.128906 C 783.460938 402.328125 783.589844 401.710938 784.46875 401.628906 C 800.25 400.167969 816.03125 398.703125 831.8125 397.238281 C 832.738281 397.152344 833.03125 397.652344 833.074219 398.511719 C 833.621094 409.273438 832.636719 420.078125 830.125 430.929688 C 829.882812 431.984375 829.316406 432.058594 828.355469 431.785156 C 813.210938 427.472656 798.054688 423.15625 782.890625 418.835938 C 782.804688 418.808594 782.726562 418.773438 782.652344 418.730469 Z M 782.652344 418.730469 " fill-opacity="1" fill-rule="nonzero"/><path fill="#cf8d2a" d="M 659.765625 425.28125 C 659.941406 425.390625 660.066406 425.546875 660.136719 425.742188 C 661.515625 429.613281 663.28125 433.347656 665.429688 436.941406 C 665.871094 437.679688 666.316406 438.417969 666.761719 439.152344 C 667.105469 439.722656 667.054688 440.230469 666.535156 440.625 C 653.980469 450.121094 641.425781 459.613281 628.871094 469.105469 C 628.214844 469.601562 627.5625 469.949219 626.996094 469.140625 C 620.695312 460.125 615.804688 450.292969 612.316406 439.644531 C 611.960938 438.554688 612.695312 438.265625 613.625 438 C 628.675781 433.726562 643.722656 429.445312 658.765625 425.164062 C 659.179688 425.042969 659.421875 425.066406 659.765625 425.28125 Z M 659.765625 425.28125 " fill-opacity="1" fill-rule="nonzero"/><path fill="#00aed9" d="M 773.421875 440.589844 C 772.90625 440.203125 772.882812 439.65625 773.234375 439.113281 C 775.898438 434.988281 778.070312 430.617188 779.753906 426 C 780.039062 425.222656 780.457031 424.945312 781.257812 425.175781 C 796.472656 429.507812 811.683594 433.839844 826.898438 438.171875 C 827.8125 438.433594 827.855469 439.0625 827.585938 439.886719 C 824.164062 450.246094 819.359375 459.914062 813.164062 468.882812 C 812.613281 469.675781 812.128906 469.867188 811.339844 469.269531 C 798.6875 459.722656 786.050781 450.164062 773.421875 440.589844 Z M 773.421875 440.589844 " fill-opacity="1" fill-rule="nonzero"/><path fill="#f99d26" d="M 656.605469 498.378906 C 647.574219 492.285156 639.542969 484.898438 632.398438 476.28125 C 631.585938 475.304688 632.121094 474.84375 632.953125 474.214844 C 645.445312 464.773438 657.933594 455.332031 670.421875 445.886719 C 671.195312 445.300781 671.675781 445.707031 672.238281 446.347656 C 675.476562 450.023438 679.023438 453.25 682.875 456.03125 C 683.652344 456.589844 683.46875 457.152344 683.011719 457.886719 C 674.761719 471.226562 666.511719 484.566406 658.261719 497.902344 C 657.832031 498.597656 657.320312 498.863281 656.605469 498.378906 Z M 656.605469 498.378906 " fill-opacity="1" fill-rule="nonzero"/><path fill="#fdb713" d="M 782.214844 498.46875 C 782.066406 498.386719 781.949219 498.273438 781.859375 498.128906 C 773.746094 485.011719 765.613281 471.871094 757.460938 458.699219 C 757.070312 458.066406 756.03125 456.800781 756.929688 456.15625 C 760.871094 453.316406 764.59375 449.914062 768.097656 445.941406 C 768.515625 445.46875 769.121094 445.5625 769.613281 445.933594 C 782.042969 455.324219 794.46875 464.71875 806.894531 474.117188 C 807.695312 474.722656 808.457031 475.214844 807.660156 476.191406 C 800.632812 484.765625 792.542969 492.175781 783.386719 498.421875 C 783.007812 498.679688 782.617188 498.695312 782.214844 498.46875 Z M 782.214844 498.46875 " fill-opacity="1" fill-rule="nonzero"/><path fill="#e11484" d="M 664.40625 503.214844 C 663.722656 502.828125 663.191406 502.363281 663.683594 501.566406 C 672.066406 488.011719 680.453125 474.457031 688.835938 460.90625 C 689.230469 460.269531 689.890625 460.433594 690.488281 460.75 C 694.71875 462.957031 699.28125 464.71875 704.183594 466.027344 C 704.9375 466.230469 704.984375 466.863281 704.855469 467.566406 C 701.949219 483.121094 699.046875 498.675781 696.140625 514.230469 C 695.996094 515 695.300781 515.09375 694.613281 514.933594 C 683.972656 512.488281 673.90625 508.582031 664.40625 503.214844 Z M 664.40625 503.214844 " fill-opacity="1" fill-rule="nonzero"/><path fill="#8f1838" d="M 745.496094 514.910156 C 744.742188 515.082031 743.964844 515.066406 743.789062 514.117188 C 740.902344 498.554688 738.007812 482.996094 735.105469 467.441406 C 734.992188 466.839844 735.128906 466.207031 735.746094 466.039062 C 740.765625 464.679688 745.351562 462.914062 749.5 460.742188 C 750.132812 460.414062 750.753906 460.277344 751.167969 460.941406 C 759.449219 474.328125 767.734375 487.71875 776.011719 501.105469 C 776.394531 501.726562 776.804688 502.519531 775.960938 503.003906 C 766.480469 508.429688 756.328125 512.394531 745.496094 514.910156 Z M 745.496094 514.910156 " fill-opacity="1" fill-rule="nonzero"/><path fill="#f36d25" d="M 703.066406 516.460938 C 702.515625 516.074219 702.511719 515.730469 702.636719 515.066406 C 705.535156 499.53125 708.4375 484 711.335938 468.46875 C 711.503906 467.570312 712.164062 467.535156 712.972656 467.625 C 717.613281 468.128906 722.460938 468.113281 727.511719 467.570312 C 728.339844 467.480469 728.578125 468.113281 728.710938 468.839844 C 731.59375 484.273438 734.476562 499.710938 737.359375 515.148438 C 737.511719 515.964844 737.257812 516.492188 736.425781 516.609375 C 725.363281 518.191406 714.351562 518.183594 703.382812 516.585938 C 703.269531 516.570312 703.164062 516.527344 703.066406 516.460938 Z M 703.066406 516.460938 " fill-opacity="1" fill-rule="nonzero"/></svg>