<svg xmlns="http://www.w3.org/2000/svg" xmlns:xlink="http://www.w3.org/1999/xlink" width="125" zoomAndPan="magnify" viewBox="0 0 93.75 187.499992" height="250" preserveAspectRatio="xMidYMid meet" version="1.0"><defs><clipPath id="2e2d780f36"><path d="M 9.558594 0.308594 L 84.554688 0.308594 L 84.554688 187 L 9.558594 187 Z M 9.558594 0.308594 " clip-rule="nonzero"/></clipPath></defs><g clip-path="url(#2e2d780f36)"><path fill="#1ad1a5" d="M 78.222656 34.011719 C 77.078125 40.3125 76.132812 46.597656 74.75 52.839844 C 74.203125 55.304688 73.589844 57.75 72.875 60.171875 C 71.515625 64.753906 69.6875 69.1875 67.101562 73.222656 C 67.089844 73.238281 67.082031 73.257812 67.070312 73.277344 C 65.253906 75.445312 64.035156 78.042969 62.609375 80.46875 C 61.019531 83.167969 59.3125 85.796875 57.417969 88.296875 C 56.953125 88.910156 57.996094 89.507812 58.457031 88.898438 C 60.273438 86.5 61.925781 83.980469 63.460938 81.390625 C 64.953125 78.871094 66.191406 76.097656 68.128906 73.878906 C 68.199219 73.800781 68.238281 73.714844 68.261719 73.625 C 72.789062 66.480469 74.914062 58.207031 76.511719 49.992188 C 76.558594 49.765625 76.601562 49.539062 76.644531 49.3125 C 77.847656 53.902344 78.523438 58.617188 78.628906 63.371094 C 78.695312 66.34375 78.28125 69.007812 77.074219 71.738281 C 75.921875 74.339844 74.707031 76.921875 73.523438 79.511719 C 68.929688 89.554688 64.085938 99.621094 61.28125 110.34375 C 59.730469 116.257812 58.863281 122.351562 59.066406 128.472656 C 59.070312 128.574219 59.09375 128.660156 59.136719 128.738281 C 58.609375 138.472656 59.296875 148.269531 61.183594 157.828125 C 60.621094 158.214844 60.046875 158.585938 59.472656 158.949219 C 59.269531 158.683594 59.023438 158.445312 58.738281 158.234375 C 57.679688 157.46875 56.273438 157.289062 55.269531 158.230469 C 55.183594 158.308594 55.101562 158.398438 55.019531 158.488281 C 53.882812 159.503906 53.367188 161.152344 53.632812 162.664062 C 52.5625 163.355469 51.488281 164.050781 50.417969 164.742188 C 50.230469 164.316406 49.96875 163.96875 49.65625 163.675781 C 49.347656 163.179688 48.929688 162.738281 48.382812 162.386719 C 46.945312 161.464844 45.203125 161.589844 43.910156 162.472656 C 43.859375 162.5 43.816406 162.53125 43.777344 162.570312 C 43.449219 162.8125 43.152344 163.109375 42.90625 163.449219 C 41.734375 164.636719 41.179688 166.324219 41.601562 168.085938 C 41.761719 168.75 42.066406 169.359375 42.476562 169.890625 C 41.195312 170.722656 39.902344 171.539062 38.585938 172.3125 C 38.480469 171.957031 38.316406 171.628906 38.09375 171.339844 C 38.0625 171.300781 38.027344 171.261719 37.996094 171.226562 C 37.449219 169.929688 36.382812 168.976562 34.765625 169.433594 C 34.308594 169.5625 33.953125 169.785156 33.683594 170.074219 C 33.46875 170.230469 33.292969 170.425781 33.15625 170.652344 C 32.390625 171.445312 32.132812 172.628906 32.265625 173.742188 C 32.332031 174.296875 32.5 174.78125 32.757812 175.191406 C 32.289062 175.371094 31.820312 175.542969 31.34375 175.699219 C 31.082031 173.417969 30.753906 171.148438 30.351562 168.886719 C 29.824219 165.898438 29.1875 162.921875 28.410156 159.988281 C 27.902344 158.0625 27.285156 156.050781 26.269531 154.320312 C 25.882812 153.664062 25.136719 153.367188 24.59375 152.84375 C 23.929688 152.203125 23.390625 151.445312 22.785156 150.753906 C 18.511719 145.855469 15.214844 140.113281 13.148438 133.957031 C 11.082031 127.808594 10.25 121.234375 10.914062 114.773438 C 11.371094 110.339844 12.585938 106.019531 14.4375 101.96875 C 14.5 101.996094 14.574219 102.011719 14.65625 102.011719 C 16.292969 102.011719 17.941406 101.917969 19.582031 101.722656 C 20.03125 102.722656 20.726562 103.585938 21.738281 104.21875 C 23.515625 105.339844 25.660156 105.421875 27.660156 104.976562 C 27.664062 104.980469 27.664062 104.980469 27.667969 104.984375 C 28.078125 105.1875 28.460938 104.90625 28.554688 104.566406 C 28.761719 104.167969 28.445312 103.535156 27.875 103.691406 C 27.847656 103.699219 27.820312 103.703125 27.792969 103.710938 C 26.332031 103.019531 24.5 102.277344 23.285156 101.101562 C 25.710938 100.574219 28.082031 99.804688 30.324219 98.773438 C 30.855469 98.527344 31.445312 98.25 31.84375 97.816406 C 32.90625 102.578125 34.285156 107.269531 35.972656 111.855469 C 36.238281 112.574219 37.398438 112.265625 37.132812 111.539062 C 34.886719 105.4375 33.175781 99.144531 32.046875 92.746094 C 37.417969 90.253906 41.183594 85.535156 44.382812 80.710938 C 48.371094 74.695312 52.109375 68.496094 55.953125 62.382812 C 57.847656 59.367188 60.027344 56.386719 61.429688 53.097656 C 62.777344 49.9375 62.890625 46.488281 63.433594 43.140625 C 63.542969 42.460938 63.667969 41.78125 63.800781 41.105469 C 63.863281 40.996094 63.890625 40.871094 63.875 40.734375 C 65.140625 34.496094 67.339844 28.472656 69.820312 22.617188 C 71.363281 18.980469 72.929688 15.320312 74.6875 11.777344 C 75.847656 9.441406 77.507812 6.921875 80.023438 5.890625 C 80.59375 5.65625 81.199219 5.511719 81.816406 5.476562 C 82.203125 5.457031 83.410156 5.304688 83.402344 5.9375 C 83.402344 6.0625 83.300781 6.195312 83.261719 6.308594 C 83.191406 6.535156 83.164062 6.773438 83.125 7.007812 C 83.035156 7.496094 82.945312 7.988281 82.855469 8.480469 C 82.5 10.445312 82.140625 12.410156 81.785156 14.375 C 81.074219 18.308594 80.359375 22.238281 79.644531 26.171875 C 79.167969 28.785156 78.695312 31.398438 78.222656 34.011719 Z M 62.933594 138.179688 C 62.933594 138.316406 62.945312 138.453125 62.980469 138.597656 C 63.191406 139.527344 64.40625 140.035156 65.144531 139.34375 C 65.3125 139.183594 65.449219 138.988281 65.570312 138.777344 C 65.628906 138.730469 65.6875 138.679688 65.742188 138.621094 C 66.261719 138.824219 66.753906 139.089844 67.203125 139.40625 C 67.539062 139.640625 67.835938 139.902344 68.105469 140.1875 C 67.996094 140.296875 67.898438 140.425781 67.824219 140.570312 C 67.535156 141.136719 67.59375 141.867188 68.089844 142.292969 C 68.457031 142.609375 69.03125 142.695312 69.558594 142.648438 C 69.898438 143.679688 70.011719 144.796875 69.9375 145.90625 C 69.8125 145.761719 69.617188 145.6875 69.371094 145.777344 C 67.371094 146.492188 67.480469 149.167969 68.589844 150.433594 C 68.03125 151.488281 67.328125 152.457031 66.527344 153.355469 C 65.84375 153.070312 65 153.054688 64.316406 153.285156 C 64.199219 153.261719 64.066406 153.269531 63.933594 153.332031 C 62.726562 153.894531 62.03125 155.332031 62.375 156.625 C 62.398438 156.730469 62.4375 156.828125 62.476562 156.925781 C 62.402344 156.976562 62.332031 157.03125 62.257812 157.082031 C 61.136719 151.289062 60.464844 145.414062 60.238281 139.515625 C 60.238281 139.4375 60.234375 139.363281 60.234375 139.285156 C 61.019531 138.605469 61.960938 138.261719 62.933594 138.179688 Z M 28.636719 176.460938 C 28.480469 175.648438 27.984375 175.015625 27.050781 174.914062 C 26.988281 174.910156 26.921875 174.90625 26.859375 174.90625 C 26.796875 174.859375 26.71875 174.824219 26.625 174.800781 C 25.273438 174.492188 24.269531 175.726562 23.910156 177.148438 C 22.960938 177.152344 22.023438 177.007812 21.1875 176.5625 C 20.730469 176.320312 20.332031 176 19.988281 175.632812 C 20.109375 175.359375 20.1875 175.066406 20.207031 174.789062 C 20.261719 174.347656 20.140625 173.886719 19.816406 173.542969 C 19.792969 173.332031 19.671875 173.128906 19.429688 173.027344 C 19.359375 172.996094 19.289062 172.976562 19.222656 172.960938 C 19 172.84375 18.765625 172.808594 18.539062 172.832031 C 18.210938 171.601562 18.148438 170.351562 18.304688 169.121094 C 18.648438 169.132812 19.007812 168.996094 19.257812 168.746094 C 19.976562 168.011719 19.851562 166.675781 19.160156 165.976562 C 19.609375 164.902344 20.203125 163.867188 20.902344 162.898438 C 20.96875 162.929688 21.035156 162.957031 21.109375 162.980469 C 22.515625 163.402344 23.679688 161.589844 23.078125 160.414062 C 24.144531 159.394531 25.320312 158.519531 26.519531 157.855469 C 26.871094 158.871094 27.15625 159.917969 27.421875 160.953125 C 28.148438 163.804688 28.757812 166.683594 29.261719 169.582031 C 29.632812 171.734375 29.9375 173.890625 30.183594 176.058594 C 29.671875 176.207031 29.15625 176.339844 28.636719 176.460938 Z M 20.824219 98.871094 C 20.796875 98.878906 20.765625 98.882812 20.734375 98.890625 C 20.726562 98.828125 20.71875 98.765625 20.710938 98.707031 C 20.707031 98.671875 20.695312 98.644531 20.6875 98.613281 C 20.710938 98.480469 20.734375 98.347656 20.765625 98.214844 C 20.777344 98.433594 20.792969 98.65625 20.824219 98.871094 Z M 23.085938 102.8125 C 23.160156 102.890625 23.238281 102.972656 23.316406 103.054688 C 23.207031 102.992188 23.101562 102.929688 22.996094 102.859375 C 23.027344 102.84375 23.054688 102.828125 23.085938 102.8125 Z M 15.410156 78.796875 C 15.273438 74.804688 15.117188 70.808594 15.210938 66.8125 C 15.285156 63.402344 15.332031 59.777344 16.492188 56.523438 C 17.007812 55.085938 17.820312 53.671875 19.074219 52.75 C 20.621094 51.617188 22.605469 51.367188 24.035156 52.808594 C 25.265625 54.050781 25.875 55.878906 26.425781 57.492188 C 27.039062 59.289062 27.503906 61.132812 27.863281 62.992188 C 29.320312 70.589844 29.035156 78.390625 29.886719 86.058594 C 30.203125 88.917969 30.632812 91.761719 31.175781 94.582031 C 28.515625 94.917969 26.34375 96.96875 23.886719 97.933594 C 23.257812 98.179688 22.621094 98.394531 21.976562 98.578125 C 21.675781 96.371094 22.882812 93.761719 24.753906 92.6875 C 24.910156 92.597656 24.996094 92.472656 25.027344 92.339844 C 25.707031 92.25 25.675781 91.152344 24.9375 91.148438 C 20.644531 91.109375 18.59375 95.457031 18.949219 99.214844 C 17.691406 99.386719 16.417969 99.449219 15.136719 99.402344 C 14.882812 99.394531 14.714844 99.519531 14.628906 99.6875 C 15.828125 92.804688 15.652344 85.769531 15.410156 78.796875 Z M 48.886719 42.84375 C 47.210938 40.039062 46.03125 37 45.464844 33.78125 C 44.988281 31.070312 44.410156 26.382812 47.613281 25.109375 C 47.945312 26.660156 48.542969 28.15625 49.320312 29.628906 C 53.050781 36.71875 56.992188 43.707031 60.828125 50.738281 C 60.863281 50.796875 60.902344 50.84375 60.945312 50.886719 C 60.78125 51.453125 60.589844 52.015625 60.359375 52.5625 C 59.683594 54.171875 58.757812 55.660156 57.835938 57.132812 C 57.808594 57.175781 57.785156 57.214844 57.757812 57.257812 C 55.757812 51.90625 51.789062 47.695312 48.886719 42.84375 Z M 48.539062 21.753906 C 48.726562 18.90625 49.953125 16.203125 51.949219 14.175781 C 52.375 15.28125 52.820312 16.382812 53.234375 17.480469 C 54.152344 19.917969 55.078125 22.347656 56.015625 24.777344 C 58.117188 30.191406 60.300781 35.574219 62.664062 40.875 C 62.269531 43.027344 61.964844 45.195312 61.65625 47.378906 C 61.570312 47.984375 61.472656 48.589844 61.355469 49.1875 L 51.253906 30.683594 C 49.703125 27.835938 48.3125 25.082031 48.539062 21.753906 Z M 53.074219 2.453125 C 53.382812 2.144531 53.820312 1.722656 54.257812 1.613281 C 55.039062 1.417969 55.269531 2.308594 55.523438 2.859375 C 56.019531 3.9375 56.515625 5.019531 57.011719 6.097656 C 58.007812 8.257812 59 10.417969 59.996094 12.578125 C 62.230469 17.433594 64.464844 22.289062 66.699219 27.148438 C 65.503906 30.269531 64.4375 33.4375 63.585938 36.671875 C 63.394531 37.394531 63.230469 38.121094 63.070312 38.847656 C 59.527344 30.761719 56.398438 22.5 53.292969 14.238281 C 51.957031 10.695312 49.882812 5.667969 53.074219 2.453125 Z M 84.449219 5.277344 C 84.363281 5.085938 84.234375 4.914062 84.09375 4.820312 C 83.929688 4.710938 83.765625 4.605469 83.605469 4.496094 C 83.535156 4.441406 83.449219 4.398438 83.335938 4.382812 C 76.316406 3.296875 73.433594 11.542969 71.179688 16.550781 C 69.835938 19.539062 68.515625 22.550781 67.304688 25.597656 C 65.214844 21.058594 63.121094 16.515625 61.035156 11.972656 C 59.929688 9.574219 58.824219 7.171875 57.71875 4.773438 C 57.191406 3.621094 56.734375 2.390625 56.109375 1.289062 C 55.6875 0.539062 54.992188 0.144531 54.125 0.378906 C 52.476562 0.824219 51.289062 2.523438 50.726562 4.027344 C 50 5.960938 50.121094 8.058594 50.601562 10.035156 C 50.847656 11.039062 51.167969 12.03125 51.519531 13.011719 C 51.429688 13.035156 51.339844 13.082031 51.257812 13.164062 C 49.191406 15.1875 47.859375 17.847656 47.449219 20.710938 C 47.289062 21.808594 47.289062 22.871094 47.414062 23.910156 C 44.511719 24.925781 43.792969 28.117188 43.929688 30.890625 C 44.113281 34.441406 45.046875 37.953125 46.597656 41.148438 C 49.492188 47.097656 54.605469 51.773438 56.789062 58.09375 C 56.839844 58.242188 56.925781 58.34375 57.035156 58.410156 C 53.183594 64.550781 49.316406 70.683594 45.453125 76.816406 C 41.890625 82.480469 38.023438 88.472656 31.839844 91.519531 C 31.582031 89.953125 31.359375 88.378906 31.171875 86.804688 C 30.226562 78.785156 30.546875 70.625 29.019531 62.675781 C 28.640625 60.695312 28.136719 58.738281 27.46875 56.839844 C 26.921875 55.285156 26.316406 53.671875 25.257812 52.386719 C 23.121094 49.78125 19.640625 50.316406 17.453125 52.589844 C 15.378906 54.753906 14.6875 57.894531 14.367188 60.773438 C 13.898438 64.980469 13.933594 69.242188 14.039062 73.464844 C 14.277344 83.09375 15.113281 92.863281 12.867188 102.332031 C 12.84375 102.429688 12.84375 102.515625 12.859375 102.597656 C 7.121094 116.304688 9.125 132.054688 16.820312 144.660156 C 18.078125 146.722656 19.488281 148.691406 21.03125 150.554688 C 21.816406 151.496094 22.632812 152.410156 23.484375 153.296875 C 24.003906 153.832031 24.609375 154.273438 25.117188 154.824219 C 25.59375 155.34375 25.820312 156.074219 26.089844 156.722656 C 24.664062 157.488281 23.308594 158.488281 22.097656 159.660156 C 22.027344 159.644531 21.960938 159.636719 21.894531 159.632812 C 21.757812 159.34375 21.410156 159.121094 21.035156 159.292969 C 20.089844 159.722656 19.726562 161.023438 20.074219 161.976562 C 19.265625 163.082031 18.582031 164.269531 18.078125 165.519531 C 16.589844 165.515625 16.113281 167.539062 17.0625 168.484375 C 17.113281 168.53125 17.164062 168.574219 17.214844 168.613281 C 17.042969 169.753906 17.023438 170.917969 17.1875 172.085938 C 17.253906 172.550781 17.351562 173.011719 17.488281 173.460938 C 17.328125 173.664062 17.203125 173.898438 17.132812 174.15625 C 17.050781 174.457031 17.054688 174.753906 17.125 175.023438 C 17.109375 175.179688 17.125 175.332031 17.160156 175.472656 C 16.992188 176.589844 18.257812 177.210938 19.175781 176.675781 C 19.210938 176.65625 19.246094 176.628906 19.28125 176.605469 C 19.996094 177.328125 20.890625 177.867188 21.972656 178.128906 C 22.558594 178.269531 23.160156 178.332031 23.769531 178.339844 C 23.785156 179.484375 24.269531 180.5 25.378906 180.695312 C 27.105469 181 28.359375 179.320312 28.632812 177.691406 C 29.195312 177.570312 29.753906 177.429688 30.308594 177.277344 C 30.648438 180.625 30.84375 183.992188 30.894531 187.359375 C 30.902344 188.132812 32.105469 188.132812 32.09375 187.359375 C 32.046875 183.875 31.839844 180.394531 31.480469 176.925781 C 32.1875 176.699219 32.890625 176.445312 33.582031 176.171875 C 33.605469 176.160156 33.628906 176.148438 33.65625 176.140625 C 34.03125 176.40625 34.46875 176.609375 34.957031 176.753906 C 36.359375 177.167969 37.640625 177.128906 38.3125 175.664062 C 38.59375 175.054688 38.757812 174.316406 38.765625 173.585938 C 40.3125 172.6875 41.820312 171.71875 43.324219 170.75 C 44.445312 171.644531 45.945312 172.046875 47.402344 171.617188 C 48.617188 171.261719 49.597656 170.414062 50.105469 169.257812 C 50.511719 168.339844 50.800781 167.058594 50.71875 165.972656 L 54.023438 163.839844 C 54.207031 164.207031 54.445312 164.546875 54.742188 164.847656 C 55.710938 165.824219 57.253906 166.105469 58.429688 165.335938 C 59.558594 164.597656 60.101562 163.136719 60.226562 161.847656 C 60.289062 161.21875 60.230469 160.601562 60.042969 160.03125 C 60.511719 159.730469 60.980469 159.425781 61.445312 159.113281 C 62.035156 161.929688 62.726562 164.722656 63.523438 167.488281 C 64.554688 171.058594 65.746094 174.609375 66.234375 178.308594 C 66.335938 179.0625 67.539062 179.070312 67.4375 178.308594 C 67.023438 175.171875 66.160156 172.152344 65.261719 169.128906 C 64.324219 165.976562 63.46875 162.804688 62.769531 159.585938 C 62.683594 159.183594 62.597656 158.78125 62.515625 158.378906 C 62.742188 158.214844 62.972656 158.054688 63.195312 157.886719 C 63.859375 158.40625 64.789062 158.550781 65.648438 158.199219 C 66.894531 157.6875 68.039062 156.152344 67.75 154.757812 C 67.695312 154.507812 67.597656 154.292969 67.46875 154.105469 C 68.300781 153.167969 69.035156 152.160156 69.621094 151.070312 C 70.011719 151.148438 70.445312 151.089844 70.90625 150.832031 C 72.203125 150.101562 72.785156 148.378906 71.976562 147.085938 C 71.757812 146.734375 71.453125 146.460938 71.109375 146.28125 C 71.234375 144.917969 71.105469 143.546875 70.691406 142.289062 C 71.121094 142.011719 71.421875 141.578125 71.511719 141.050781 C 71.761719 139.625 70.214844 138.390625 68.882812 139.078125 C 68.839844 139.101562 68.796875 139.125 68.753906 139.15625 C 68.4375 138.84375 68.089844 138.558594 67.707031 138.300781 C 67.257812 138 66.777344 137.75 66.28125 137.546875 C 66.378906 137.277344 66.425781 136.992188 66.359375 136.726562 C 66.292969 136.476562 66.128906 136.261719 65.921875 136.09375 C 65.871094 136.042969 65.8125 136.003906 65.75 135.972656 C 65.617188 135.886719 65.476562 135.820312 65.339844 135.773438 C 64.457031 135.484375 63.402344 135.863281 63.050781 136.75 C 63.019531 136.828125 62.996094 136.910156 62.976562 136.988281 C 62 137.054688 61.046875 137.332031 60.191406 137.851562 C 60.117188 134.65625 60.175781 131.457031 60.359375 128.261719 C 60.371094 128.105469 60.328125 127.984375 60.253906 127.890625 C 60.011719 116.859375 63.304688 106.1875 67.460938 96.070312 C 69.621094 90.808594 72.03125 85.648438 74.394531 80.472656 C 75.636719 77.765625 76.90625 75.066406 78.113281 72.339844 C 79.195312 69.898438 79.796875 67.492188 79.839844 64.816406 C 79.929688 58.703125 78.921875 52.527344 77.148438 46.679688 C 78.691406 38.546875 80.097656 30.382812 81.574219 22.238281 L 84.550781 5.851562 C 84.578125 5.683594 84.535156 5.46875 84.449219 5.277344 " fill-opacity="1" fill-rule="nonzero"/></g></svg>